<?xml version="1.0" encoding="UTF-8"?>
<svg id="Capa_1" data-name="Capa 1" xmlns="http://www.w3.org/2000/svg" viewBox="0 0 32 32">
  <defs>
    <style>
      .cls-1 {
        fill: #000;
      }

      .cls-1, .cls-2 {
        stroke-width: 0px;
      }

      .cls-2 {
        fill: #fff;
      }
    </style>
  </defs>
  <rect class="cls-2" x="0" y="0" width="32" height="32" rx="16" ry="16"/>
  <path class="cls-1" d="M6.7,14.16c.21-.97.5-2.14,1.01-3.1.26-.48.56-.91.94-1.25.38-.34.82-.58,1.36-.69.42-.08.7-.02.91.12.21.14.37.37.48.68.22.61.24,1.45.26,2.07,0,.11.08.2.18.23.1.03.22-.02.27-.11.28-.47.71-1.17,1.22-1.89.51-.72,1.09-1.44,1.68-1.95.29-.25.58-.45.85-.56.27-.12.51-.15.74-.11.22.05.44.17.67.43.23.27.46.67.67,1.26.17.49.19.95.19,1.52,0,.13.08.24.19.29.11.05.25.02.34-.07.62-.63,1.52-1.44,2.47-1.92.47-.24.95-.4,1.39-.43.45-.03.86.06,1.27.33.03.02.07.05.1.07.22.17.37.34.48.51.11.18.17.36.2.55.06.39-.02.83-.2,1.28-.36.91-1.12,1.85-1.68,2.47-.09.1-.11.24-.06.36.05.12.17.2.3.2.42,0,.88-.03,1.34-.04.46-.02.92-.02,1.32.05.4.06.74.19.98.39.12.1.22.23.3.39.08.16.14.36.18.61.05.37-.06.87-.31,1.39-.25.52-.63,1.06-1.07,1.53-.45.47-.96.88-1.46,1.15-.5.27-.99.4-1.39.35-.09-.01-.14-.03-.15-.04,0,0,0,0,0,0,0,0,0,0,0,0,0,0,0,0,.01.01.01.01.02.03.03.05,0,.02,0,.04,0,.05,0,0,0,0,0,.01,0,0,0,0,0,0,0,0,0,0,0,0,0,0,.02-.04.05-.08.06-.08.18-.19.3-.26.06-.04.12-.07.16-.1.05-.02.09-.04.1-.04.22-.04.4-.05.54-.03.14.02.25.06.33.12.08.06.15.12.2.21.05.09.09.19.11.31.04.24,0,.55-.1.84-.11.3-.29.58-.51.79-.71.65-1.77,1.19-2.9,1.57-1.13.37-2.33.59-3.31.62-.08,0-.21-.01-.35-.05-.14-.04-.31-.09-.47-.16-.33-.14-.66-.34-.88-.53-.11-.1-.19-.19-.23-.26-.02-.04-.03-.06-.04-.08,0-.02,0-.03,0-.03,0,0,0,0,0-.02,0-.01.03-.03.06-.06.07-.05.22-.12.46-.18.02,0,.03,0,.04,0,0,0,0,0,.01,0h0s-.03,0-.11-.03c-.04-.02-.08-.06-.11-.11-.03-.05-.05-.11-.05-.15,0-.08.02-.11.02-.12,0,0,0,0,0,0,0,0,0,0,0,0,0,0,0,0,0,0,0,0,0,.01-.01.02-.01.02-.04.04-.06.07-.05.05-.13.12-.21.19-.17.14-.37.3-.55.42-.09.06-.17.11-.23.15-.03.02-.06.03-.08.04,0,0-.02,0-.02.01,0,0,0,0,0,0-.71.24-1.49.47-2.27.63-.78.15-1.57.22-2.28.15-.48-.05-.78-.21-.96-.41-.18-.2-.27-.45-.28-.77,0-.31.08-.67.24-1.01.16-.34.4-.66.67-.91.1-.09.25-.19.44-.27.18-.08.4-.15.62-.2.45-.1.94-.13,1.32-.08.19.02.35.06.46.11.05.02.09.05.11.07.02.02.03.03.03.04,0,0,0,0,0,.02,0,.01,0,.04-.03.09-.04.09-.16.24-.37.43-.15.14-.4.27-.69.39-.3.12-.65.21-1.02.28-.78.14-1.67.13-2.36-.06-.35-.09-.65-.23-.87-.41-.22-.18-.37-.38-.45-.65-.08-.26-.07-.46-.03-.62.04-.16.13-.29.27-.42.14-.12.32-.23.54-.32.22-.09.47-.15.73-.2.52-.09,1.08-.1,1.48-.06.2.02.36.05.45.08.02,0,.04.01.04.02,0,0,0,0,0,0,0,0-.03-.02-.06-.07-.03-.04-.05-.12-.03-.19-.03.15-.09.27-.21.38-.12.11-.29.21-.5.29-.44.16-1.05.22-1.68.18-.63-.03-1.29-.15-1.82-.31-.27-.08-.5-.18-.68-.28-.18-.1-.31-.2-.37-.28-.3-.39-.44-.81-.45-1.26,0-.4.08-.82.23-1.25.16-.43.39-.87.66-1.28.54-.83,1.24-1.57,1.83-2.03.1-.08-.03-.27-.14-.2-.65.43-1.44,1.12-2.07,1.96-.32.42-.59.87-.79,1.34-.2.47-.32.97-.32,1.47,0,.56.17,1.13.55,1.63.14.18.33.32.56.45.23.13.5.24.79.34.59.19,1.29.32,1.98.36.69.04,1.37-.01,1.94-.21.28-.1.54-.24.75-.43.21-.19.36-.45.41-.75.02-.1,0-.2-.05-.26-.04-.07-.08-.11-.12-.14-.08-.06-.16-.09-.24-.12-.16-.05-.36-.09-.6-.12-.47-.05-1.07-.04-1.66.06-.3.05-.59.13-.87.24-.28.11-.54.25-.75.45-.22.19-.39.44-.47.75-.08.3-.07.64.03,1,.12.41.37.75.69,1,.32.25.71.42,1.12.53.83.22,1.79.22,2.66.07.41-.07.81-.18,1.16-.32.35-.14.66-.3.9-.51.26-.23.44-.43.54-.66.05-.11.09-.23.09-.35,0-.12-.02-.25-.07-.35-.05-.11-.13-.19-.21-.26-.08-.07-.18-.12-.28-.17-.2-.09-.42-.14-.66-.17-.48-.06-1.03-.02-1.56.1-.26.06-.52.14-.75.24-.23.1-.45.23-.63.39-.35.32-.63.71-.83,1.13-.2.42-.31.88-.31,1.32,0,.44.14.88.46,1.23.32.34.79.57,1.39.63.81.09,1.66,0,2.49-.16.83-.16,1.64-.41,2.36-.65.05-.02.08-.03.12-.05.04-.02.08-.04.12-.07.08-.05.17-.11.27-.18.2-.14.42-.3.61-.46.1-.08.18-.16.26-.24.08-.08.14-.15.2-.25.03-.05.06-.12.06-.24,0-.06-.02-.13-.06-.19-.04-.06-.1-.11-.15-.14-.11-.05-.18-.05-.25-.05-.07,0-.12.01-.19.03-.29.07-.52.16-.7.29-.09.06-.17.14-.23.23-.06.09-.1.19-.12.3-.02.11,0,.21.02.31.02.1.06.18.11.26.1.16.23.3.38.43.3.26.68.48,1.07.65.19.08.39.15.58.19.19.05.37.07.54.07,1.06-.04,2.31-.26,3.51-.66,1.19-.4,2.33-.96,3.15-1.72.32-.29.55-.66.69-1.06.14-.39.2-.8.13-1.19-.03-.19-.09-.38-.2-.55-.1-.17-.24-.32-.42-.44-.18-.11-.38-.19-.62-.22-.23-.03-.49-.02-.77.03-.1.02-.18.05-.26.09-.08.04-.17.09-.25.15-.17.11-.33.25-.45.41-.06.08-.12.17-.16.28-.04.11-.06.24-.01.39.02.07.06.14.11.19.05.05.11.1.17.13.12.07.25.1.4.11.6.07,1.21-.11,1.79-.43.58-.31,1.15-.77,1.64-1.29.49-.52.9-1.11,1.19-1.7.28-.6.44-1.2.36-1.77-.04-.31-.12-.59-.25-.82-.12-.24-.28-.44-.47-.59-.37-.32-.84-.47-1.31-.54-.48-.07-.97-.07-1.45-.05-.47.02-.93.05-1.3.04.08.19.16.37.24.56.58-.65,1.38-1.62,1.8-2.67.21-.53.32-1.08.24-1.63-.04-.27-.14-.54-.29-.8-.15-.25-.37-.49-.64-.69-.04-.03-.09-.06-.13-.09-.53-.36-1.11-.48-1.68-.44-.57.04-1.12.24-1.65.51-1.04.55-1.97,1.4-2.61,2.06.18.07.36.14.53.22,0-.57-.02-1.13-.24-1.72-.23-.63-.5-1.1-.8-1.44-.3-.34-.65-.55-1.01-.61-.37-.07-.73,0-1.07.15-.34.15-.67.39-.99.67-.64.56-1.23,1.33-1.74,2.07-.51.74-.93,1.47-1.21,1.94.15.04.3.08.45.12-.02-.63-.05-1.51-.32-2.22-.14-.36-.34-.68-.66-.88-.32-.21-.74-.27-1.24-.16-.61.14-1.12.42-1.54.81-.42.38-.74.86-1,1.37-.52,1.03-.79,2.22-.99,3.2-.03.16.26.23.3.06Z"/>
</svg>